PathFileType	4	(X/Y/Z)	/Users/itak/Documents/Research/Walk-IL/dataset/trc/00263_00009.trc
DataRate	CameraRate	NumFrames	NumMarkers	Units	OrigDataRate	OrigDataStartFrame	OrigNumFrames
100.000000	100.000000	4	53	mm	100.000000	237	380
Frame#	Time	RPSI			LPSI			L3			STRN			T10			C7			CLAV			RBAK			LBAK			LSHO			LUPA			LAEL			LAOL			LWTS			LWPS			LFRA			LIFD			LHPS			LHTS			RSHO			RUPA			RAEL			RAOL			RWTS			RWPS			RFRA			RIFD			RHTS			RHPS			RBHD			LFHD			RFHD			LBHD			LHIP			RHIP			RASI			LASI			LKNE			LTHI			LANK			LTIP			LTOE			LMT1			LMT5			LHEE			RKNE			RTHI			RTIP			RTOE			RMT1			RMT5			RHEE			RANK			
		X1	Y1	Z1	X2	Y2	Z2	X3	Y3	Z3	X4	Y4	Z4	X5	Y5	Z5	X6	Y6	Z6	X7	Y7	Z7	X8	Y8	Z8	X9	Y9	Z9	X10	Y10	Z10	X11	Y11	Z11	X12	Y12	Z12	X13	Y13	Z13	X14	Y14	Z14	X15	Y15	Z15	X16	Y16	Z16	X17	Y17	Z17	X18	Y18	Z18	X19	Y19	Z19	X20	Y20	Z20	X21	Y21	Z21	X22	Y22	Z22	X23	Y23	Z23	X24	Y24	Z24	X25	Y25	Z25	X26	Y26	Z26	X27	Y27	Z27	X28	Y28	Z28	X29	Y29	Z29	X30	Y30	Z30	X31	Y31	Z31	X32	Y32	Z32	X33	Y33	Z33	X34	Y34	Z34	X35	Y35	Z35	X36	Y36	Z36	X37	Y37	Z37	X38	Y38	Z38	X39	Y39	Z39	X40	Y40	Z40	X41	Y41	Z41	X42	Y42	Z42	X43	Y43	Z43	X44	Y44	Z44	X45	Y45	Z45	X46	Y46	Z46	X47	Y47	Z47	X48	Y48	Z48	X49	Y49	Z49	X50	Y50	Z50	X51	Y51	Z51	X52	Y52	Z52	X53	Y53	Z53	

238	2.37	-97.02231597900391	1047.240600585938	-84.41245269775391	-216.6563720703125	1048.696166992188	-97.01791381835938	-169.4914398193359	1129.079223632812	-88.01165771484375	-142.6950073242188	1312.00244140625	-340.0354309082031	-156.8342132568359	1255.743286132812	-88.11513519287109	-147.3622894287109	1516.822509765625	-152.6449432373047	-138.3739318847656	1429.107299804688	-314.5752563476562	-83.53504943847656	1374.688720703125	-72.07860565185547	-258.5191955566406	1482.995849609375	-136.7623901367188	-309.8990478515625	1484.638061523438	-228.1097869873047	-393.0028381347656	1369.8701171875	-197.2769165039062	-430.1671752929688	1162.266357421875	-204.5733642578125	-380.2862548828125	1140.738159179688	-135.2518463134766	-371.6725463867188	949.8663940429688	-334.4060363769531	-452.1756591796875	928.0186767578125	-311.8924560546875	-445.8162536621094	1059.655517578125	-241.6659851074219	-378.6436157226562	759.7174072265625	-373.1697692871094	-445.5391235351562	844.378173828125	-344.5907287597656	-393.0722045898438	857.2904052734375	-385.8966674804688	22.93697929382324	1469.491577148438	-197.1932678222656	86.89459228515625	1404.433837890625	-173.9021606445312	135.5208282470703	1125.315673828125	-162.9483795166016	43.76264572143555	1113.391357421875	-141.0572662353516	118.5510025024414	924.42529296875	-323.3541870117188	176.0782470703125	906.2127075195312	-264.9801940917969	154.0563812255859	1060.135986328125	-194.0900573730469	119.881721496582	735.4937133789062	-357.5511169433594	144.0666656494141	809.48876953125	-374.1891784667969	187.7638397216797	804.7724609375	-316.2187805175781	-84.54178619384766	1683.7060546875	-222.8455810546875	-174.2836151123047	1683.46435546875	-431.5682067871094	-73.87905883789062	1679.903686523438	-428.624755859375	-216.2073516845703	1684.252685546875	-272.2015075683594	-345.4818420410156	984.6619873046875	-211.7140045166016	18.0643367767334	1007.70751953125	-169.7432403564453	-6.511148929595947	1045.786254882812	-269.6864929199219	-286.9364624023438	1028.763549804688	-307.2258605957031	-310.9688415527344	512.7743530273438	-351.5253295898438	-334.7089233398438	653.4494018554688	-314.1876220703125	-294.328125	100.3755035400391	-85.49209594726562	-311.2973022460938	322.447509765625	-219.1319427490234	-277.4415893554688	51.80800628662109	-295.2127075195312	-224.0675964355469	56.76490020751953	-235.8446807861328	-332.0120239257812	64.0023193359375	-201.0547485351562	-233.3753051757812	123.2075424194336	-38.06922912597656	-13.44050121307373	518.6902465820312	-247.7996826171875	32.57002258300781	785.7883911132812	-238.1493835449219	-30.3691463470459	398.9089050292969	-261.3328552246094	-82.24202728271484	42.28082656860352	-409.9218139648438	-128.6380920410156	41.68308258056641	-358.2705688476562	-20.10257720947266	30.24102401733398	-301.7352600097656	-121.5647964477539	33.6212043762207	-139.6159515380859	-56.63326644897461	29.7017650604248	-194.9325866699219	
239	2.38	-95.57344055175781	1047.754760742188	-87.88153839111328	-215.1654510498047	1049.186645507812	-100.1522064208984	-167.8658294677734	1129.473388671875	-91.47515869140625	-141.9310607910156	1312.072143554688	-343.8615417480469	-155.0992584228516	1256.093139648438	-91.80693817138672	-145.6224365234375	1517.06884765625	-156.7027740478516	-137.3924407958984	1429.187377929688	-318.5450744628906	-81.52135467529297	1374.9873046875	-76.16097259521484	-256.8407897949219	1483.389038085938	-140.3643646240234	-308.5541687011719	1484.96435546875	-231.4863433837891	-391.5553894042969	1370.285888671875	-200.1477355957031	-428.7646789550781	1162.642456054688	-207.0096435546875	-378.7171020507812	1141.23095703125	-137.8613586425781	-370.6654052734375	950.159423828125	-336.8475646972656	-451.0668334960938	928.2799682617188	-314.0790100097656	-444.5209045410156	1059.992553710938	-243.9710845947266	-377.6310119628906	759.96044921875	-375.4278564453125	-444.5560913085938	844.6359252929688	-346.7213134765625	-392.2266540527344	857.503173828125	-388.1756591796875	24.40868949890137	1469.558227539062	-201.8812713623047	88.44319152832031	1404.510498046875	-178.8404083251953	137.2728881835938	1125.37109375	-168.3139953613281	45.89568328857422	1113.335327148438	-145.9507598876953	119.4267654418945	925.2534790039062	-329.5896606445312	177.2552185058594	906.7120971679688	-271.5513000488281	155.6757049560547	1060.282836914062	-199.7918243408203	120.6416397094727	736.630615234375	-365.0337524414062	144.78125	810.7109375	-381.2526550292969	188.6836242675781	805.5910034179688	-323.4760131835938	-82.98344421386719	1683.8203125	-227.1457977294922	-173.4391021728516	1683.6259765625	-435.5435180664062	-73.03709411621094	1679.997924804688	-432.9525756835938	-214.7918243408203	1684.454956054688	-276.0315856933594	-344.3706665039062	984.96630859375	-214.2966003417969	19.65245819091797	1007.97216796875	-173.3671112060547	-5.550082206726074	1045.930297851562	-273.5851745605469	-286.1221923828125	1028.896484375	-310.0381774902344	-308.7525024414062	513.8057250976562	-356.7394714355469	-333.287841796875	654.0067138671875	-318.0858154296875	-289.8519287109375	94.60236358642578	-101.7146453857422	-308.0282897949219	320.2424011230469	-228.9436798095703	-275.2206115722656	52.42356872558594	-313.0984191894531	-221.1772766113281	55.53842544555664	-254.0969848632812	-328.7546997070312	61.93204498291016	-217.9825897216797	-228.4288330078125	115.8634719848633	-54.13263320922852	-12.73056983947754	518.351806640625	-247.8322906494141	33.43202972412109	785.7205810546875	-240.6829071044922	-29.97540092468262	398.8243408203125	-261.0598754882812	-82.2822265625	42.25328826904297	-409.9451599121094	-128.6412658691406	41.63615036010742	-358.2719116210938	-20.0846004486084	30.24814605712891	-301.7278747558594	-121.6005172729492	33.63018035888672	-139.6022644042969	-56.67101287841797	29.68280220031738	-194.9169616699219	
240	2.39	-94.16008758544922	1048.228271484375	-91.35633087158203	-213.7127532958984	1049.638671875	-103.2785491943359	-166.3068237304688	1129.830322265625	-94.9013671875	-141.2446136474609	1312.101928710938	-347.6483154296875	-153.4698486328125	1256.409423828125	-95.47991943359375	-143.9996948242188	1517.277099609375	-160.7268676757812	-136.4811706542969	1429.23583984375	-322.4862976074219	-79.68255615234375	1375.255859375	-80.18935394287109	-255.2691040039062	1483.753173828125	-143.9546966552734	-307.3075256347656	1485.256103515625	-234.8747253417969	-390.2215270996094	1370.65771484375	-203.0611114501953	-427.4301452636719	1162.97021484375	-209.4906616210938	-377.2005310058594	1141.685913085938	-140.4771728515625	-369.6802368164062	950.3474731445312	-339.2328491210938	-449.9826049804688	928.454833984375	-316.2200317382812	-443.2611999511719	1060.266479492188	-246.2779541015625	-376.6358337402344	760.0791015625	-377.5171813964844	-443.6108703613281	844.7824096679688	-348.768310546875	-391.3780822753906	857.5802001953125	-390.3491516113281	25.77078437805176	1469.583251953125	-206.4988250732422	89.86846160888672	1404.536865234375	-183.6885528564453	138.8486785888672	1125.371948242188	-173.5238189697266	47.88810729980469	1113.23486328125	-150.6959228515625	120.0997924804688	925.9902954101562	-335.619384765625	178.2330017089844	907.1279907226562	-277.8956909179688	157.1094665527344	1060.36181640625	-205.3185424804688	121.1749572753906	737.6802978515625	-372.2720031738281	145.2843170166016	811.8319702148438	-388.0766296386719	189.3767242431641	806.314208984375	-330.4835815429688	-81.51140594482422	1683.890380859375	-231.3829193115234	-172.6462249755859	1683.783813476562	-439.4627075195312	-72.25632476806641	1680.077392578125	-437.2108154296875	-213.4498901367188	1684.627563476562	-279.8157653808594	-343.2890625	985.2279052734375	-216.8268432617188	21.25055885314941	1008.209350585938	-176.9507141113281	-4.714345932006836	1046.040283203125	-277.4490051269531	-285.3157348632812	1028.99658203125	-312.8003845214844	-306.5651550292969	514.7848510742188	-361.8433227539062	-331.928466796875	654.4918823242188	-321.8992309570312	-285.6558227539062	89.13825225830078	-117.9300384521484	-304.9292602539062	318.0944519042969	-238.7581634521484	-273.0436401367188	53.19265365600586	-330.7220764160156	-218.4252777099609	54.52972412109375	-272.077880859375	-325.6681518554688	60.093505859375	-234.8182220458984	-223.8660430908203	108.884651184082	-70.19517517089844	-12.07193374633789	517.9871826171875	-247.8430786132812	34.19695281982422	785.6195068359375	-243.2498626708984	-29.62090301513672	398.741943359375	-260.7306213378906	-82.32982635498047	42.22065353393555	-409.9763793945312	-128.6463012695312	41.58981704711914	-358.2754821777344	-20.07014274597168	30.25311279296875	-301.7228698730469	-121.6478881835938	33.61028671264648	-139.5788269042969	-56.70108032226562	29.67633819580078	-194.9035797119141	
241	2.4	-92.77658843994141	1048.662231445312	-94.83531188964844	-212.3053436279297	1050.037109375	-106.3999481201172	-164.8111877441406	1130.154418945312	-98.28926849365234	-140.6340789794922	1312.09423828125	-351.3960876464844	-151.9358825683594	1256.693969726562	-99.13489532470703	-142.4930725097656	1517.449462890625	-164.7178802490234	-135.6453399658203	1429.253662109375	-326.3980712890625	-78.01201629638672	1375.497680664062	-84.17165374755859	-253.7980499267578	1484.087768554688	-147.5291900634766	-306.1546020507812	1485.512451171875	-238.2676239013672	-388.9944458007812	1370.982421875	-206.0098419189453	-426.1663818359375	1163.248046875	-212.0164489746094	-375.7543029785156	1142.097412109375	-143.1075134277344	-368.7165832519531	950.4321899414062	-341.5691223144531	-448.9279174804688	928.544189453125	-318.3224487304688	-442.0464477539062	1060.477905273438	-248.5909423828125	-375.66015625	760.0792846679688	-379.4493103027344	-442.691162109375	844.8154907226562	-350.7364501953125	-390.5224609375	857.5244140625	-392.4264831542969	27.02664756774902	1469.573852539062	-211.050048828125	91.17259216308594	1404.517822265625	-188.4518737792969	140.2479705810547	1125.324096679688	-178.5872344970703	49.69351959228516	1113.102661132812	-155.3143615722656	120.5758590698242	926.6304931640625	-341.4402770996094	179.0105590820312	907.4527587890625	-284.0074157714844	158.3573608398438	1060.377075195312	-210.6753540039062	121.4850921630859	738.632080078125	-379.2504577636719	145.5828857421875	812.8400268554688	-394.6489562988281	189.8471069335938	806.9325561523438	-337.2261352539062	-80.1265869140625	1683.92138671875	-235.5644989013672	-171.9091949462891	1683.931030273438	-443.3360595703125	-71.53607940673828	1680.13525390625	-441.406494140625	-212.1884918212891	1684.775634765625	-283.5633544921875	-342.2372741699219	985.455810546875	-219.3070526123047	22.7752799987793	1008.413208007812	-180.5390167236328	-3.966472148895264	1046.138305664062	-281.3018798828125	-284.5118103027344	1029.069946289062	-315.517822265625	-304.4299621582031	515.7229614257812	-366.8682250976562	-330.6313781738281	654.92041015625	-325.6634826660156	-281.7688293457031	83.99689483642578	-134.1130828857422	-302.0242919921875	316.0246887207031	-248.5818939208984	-270.7850341796875	54.09541320800781	-348.0624084472656	-215.7208099365234	53.74184417724609	-289.7345886230469	-322.6831359863281	58.45268249511719	-251.5626373291016	-219.7316436767578	102.3123397827148	-86.19886779785156	-11.48565769195557	517.5996704101562	-247.8216400146484	34.86457061767578	785.481689453125	-245.8459320068359	-29.31017684936523	398.6610412597656	-260.3302307128906	-82.38320922851562	42.18242645263672	-410.0148010253906	-128.6512145996094	41.54795837402344	-358.2803039550781	-20.06407928466797	30.2534294128418	-301.7176513671875	-121.6953201293945	33.56591796875	-139.5433654785156	-56.72531890869141	29.68303871154785	-194.890869140625	
